@startuml MD

skinparam classAttributeIconSize 0
hide methods
left to right direction

class App {

}

class Organization {
        - String name
        - String IBAN
}

class Transaction {

}

class Task {
        - String id
        - String description
        - Integer durationInHours
        - Double costPerHourOfJuniorEur
        - String category
}

class PaymentDetails {
        Boolean isPaid
}

class TaskExecutionDetails {
        - LocalDate endDate
        - Integer delayInDays
        - String DescriptionQualityOfWork
}

class Collaborator {
        - String name
        - String email
        - String password
}

class Manager {
        - String name
        - String email
        - String password
}

class HistoricalTransactionFile {

}

class PaymentScheduler {
        - Integer dayMonth
        - LocalTime timeOfDay
}

class Administrator {
        - String name
        - String email
        - String password
}

class EmailScheduler {

}

class User {
        - String name
        - String email
        - String password
}

class Freelancer {
        - String id
        - String name
        - String levelOfExpertise
        - String email
        - String NIF
        - String bankAccountIBAN
        - String address
        - String country
}

Collaborator                 "1" -- "*"      Transaction               : creates >
Collaborator                 "1" -- "*"      Task                      : creates >
Collaborator                 "1" -- "*"      Freelancer                : creates >
Collaborator                 "1" -- "*"      HistoricalTransactionFile : loads >
Collaborator               "0,1" -- "1"      User                      : acts as >
Manager                      "1" -- "0,1"    PaymentScheduler          : defines >
Manager                    "0,1" -- "1"      User                      : acts as >
Transaction                  "1" -- "1"      Task                      : relative to >
Transaction                  "*" -- "1"      Freelancer                : to >
Transaction                  "*" -- "1"      PaymentAPI                : uses >
Transaction                  "*" -- "1"      Organization              : made on behalf of >
Transaction                  "1" -- "1"      TaskExecutionDetails      : executed with >
TaskExecutionDetails         "1" -- "1"      Task                      : refers to >
HistoricalTransactionFile    "1" -- "*"      Transaction               : records >
PaymentScheduler             "1" -- "*"      Transaction               : schedules payments>
Organization                 "1" -- "1"      Collaborator              : has >
Organization                 "1" -- "1"      Manager                   : has >
Organization                 "1" -- "1"      PaymentScheduler          : uses >
Organization                 "1" -- "*"      Task                      : publishes >
Organization                 "1" -- "*"      Transaction               : has >
Task                         "*" -- "0, 1"   Freelancer                : executed by >
App                          "1" -- "1"      MonetaryUnitConversionAPI : supports >
App                          "1" -- "*"      Organization              : has >
App                          "1" -- "1"      EmailAPI                  : supports >
App                          "1" -- "1"      PaymentAPI                : supports >
App                          "1" -- "*"      Administrator             : has >
App                          "1" -- "*"      Freelancer                : has >
App                          "1" -- "1"      EmailScheduler            : has >
EmailScheduler               "1" -- "1"      EmailAPI                  : uses >
Administrator                "1" -- "*"      Organization              : adds >
Administrator              "0,1" -- "1"      User                      : acts as >
EmailAPI                     "1" -- "*"      User                      : e-mails >
EmailAPI                     "1" -- "*"      Freelancer                : e-mails >
(Organization, Transaction)      ..          PaymentDetails

@enduml